# xmcd CD database file
#
# Track frame offsets:
#	183
#	22445
#	41328
#	62583
#	79428
#	98265
#	115820
#	137638
#
# Disc length: 2228 seconds
#
# Revision: 4
# Processed by: cddbd v1.5.2PL0 Copyright (c) Steve Scherf et al.
# Submitted via: CDex 1.76
#
DISCID=6308b208
DTITLE=Stephan Eicher - I tell this night
DYEAR=1985
DGENRE=Rhythmic Soul
TTITLE0=I tell this night
TTITLE1=Two people in a room
TTITLE2=Tu tournes mon coeur
TTITLE3=Where did our love go
TTITLE4=Don't disdain me
TTITLE5=No escape
TTITLE6=Le matin
TTITLE7=Komm zuruck
EXTD=YEAR: 1985
EXTT0=
EXTT1=
EXTT2=
EXTT3=
EXTT4=
EXTT5=
EXTT6=
EXTT7=
PLAYORDER=
